<?xml version="1.0" standalone="no"?>
<!DOCTYPE svg PUBLIC "-//W3C//DTD SVG 20010904//EN"
 "http://www.w3.org/TR/2001/REC-SVG-20010904/DTD/svg10.dtd">
<svg version="1.0" xmlns="http://www.w3.org/2000/svg"
 width="200.000000pt" height="200.000000pt" viewBox="0 0 200.000000 200.000000"
 preserveAspectRatio="xMidYMid meet">
<metadata>
Created by potrace 1.16, written by Peter Selinger 2001-2019
</metadata>
<g transform="translate(0.000000,200.000000) scale(0.100000,-0.100000)"
fill="#000000" stroke="none">
<path d="M2 1673 l4 -328 30 -82 c17 -45 29 -85 26 -87 -3 -3 0 -12 7 -20 9
-11 8 -15 -4 -20 -9 -3 -15 0 -15 9 0 8 -11 27 -25 42 l-24 28 -1 -202 c0
-137 3 -203 11 -203 5 0 7 -6 3 -12 -6 -10 -4 -10 7 0 22 20 34 14 14 -8 -10
-11 -14 -20 -9 -20 5 0 1 -5 -8 -11 -17 -9 -18 -38 -18 -384 l0 -375 1000 0
1000 0 0 620 c0 430 -4 619 -11 614 -6 -3 -8 -12 -5 -20 4 -12 -21 -34 -38
-34 -3 0 8 21 24 47 17 26 30 60 30 77 l0 31 -19 -24 c-10 -14 -17 -30 -15
-35 2 -6 -7 -22 -19 -36 -12 -14 -21 -23 -20 -21 2 2 -1 9 -6 15 -7 8 4 30 32
65 41 52 42 57 44 135 l3 81 -23 -71 c-17 -54 -34 -85 -73 -129 -42 -48 -51
-53 -49 -34 1 13 6 24 11 24 15 0 34 15 34 27 0 7 -5 6 -15 -2 -12 -10 -12 -4
2 36 11 31 13 49 6 51 -7 3 -4 29 8 76 19 72 27 235 10 209 -6 -11 -11 -10
-25 3 -9 9 -16 22 -16 29 0 22 -31 260 -34 263 -11 12 -29 -115 -36 -250 -4
-95 -12 -163 -19 -170 -6 -6 -11 -20 -11 -32 0 -16 2 -17 9 -6 6 10 8 -1 4
-30 -7 -53 -13 -63 -14 -23 -2 25 -3 23 -9 -11 -7 -37 -7 -36 -10 25 -3 65 -3
65 -10 20 -6 -37 -7 -40 -9 -15 -6 70 -8 94 -15 159 -6 53 -5 67 5 61 8 -5 10
-4 5 3 -4 6 -9 60 -12 119 -6 146 -8 153 -43 153 -25 0 -30 -5 -36 -32 -8 -40
-104 -286 -151 -386 -18 -40 -32 -78 -30 -85 1 -6 1 -9 -1 -4 -3 4 -9 5 -14 2
-5 -4 0 15 11 41 11 26 18 49 16 51 -8 8 -27 -8 -21 -17 7 -11 -51 -127 -77
-157 -12 -12 -17 -27 -13 -34 5 -7 4 -10 -3 -5 -6 3 -15 -2 -21 -11 -15 -26
-13 -11 3 23 7 16 17 42 21 58 l6 30 -21 -25 -20 -24 17 38 c9 20 20 33 23 27
3 -5 6 6 7 25 1 20 8 50 16 68 24 51 33 92 17 82 -9 -6 -12 -4 -8 7 4 9 0 15
-8 15 -7 0 -17 -10 -20 -21 -4 -12 -22 -54 -40 -94 -37 -80 -39 -86 -22 -76 7
5 8 3 4 -5 -5 -7 -10 -10 -14 -7 -9 10 -31 -44 -25 -61 4 -11 2 -14 -5 -9 -13
8 -52 -62 -45 -81 2 -6 -1 -14 -6 -18 -7 -4 -8 0 -4 11 4 11 3 15 -4 11 -8 -5
-10 5 -8 30 1 20 7 39 13 41 6 2 8 10 5 19 -5 12 -3 14 7 8 10 -6 12 -4 7 9
-4 9 2 40 13 69 25 64 25 96 1 44 -10 -21 -21 -38 -25 -37 -4 1 -11 -2 -14 -6
-4 -4 -1 -4 5 0 23 13 13 -10 -18 -42 -16 -17 -31 -41 -33 -54 -3 -30 -34 -94
-52 -109 -12 -9 -12 -6 -2 22 6 19 18 44 26 57 10 15 11 22 3 22 -6 0 -15 -8
-18 -17 -11 -30 -69 -108 -82 -111 -8 -2 -9 3 -3 15 41 79 112 256 106 265 -4
6 -3 8 2 5 6 -3 16 9 23 26 7 18 37 86 67 152 65 147 76 178 65 171 -5 -3 -19
-30 -31 -61 -12 -30 -26 -53 -30 -50 -4 3 -11 -2 -14 -11 -9 -23 -8 -26 7 -19
6 4 5 1 -4 -7 -15 -12 -36 -53 -107 -208 -17 -36 -42 -80 -56 -99 -14 -19 -26
-40 -26 -47 0 -6 -6 -14 -14 -17 -15 -6 -76 -90 -76 -104 0 -4 14 14 31 40 18
26 34 46 36 43 5 -5 -21 -49 -53 -88 -13 -16 -24 -23 -26 -16 -2 6 -17 -11
-33 -38 -20 -33 -30 -44 -33 -32 -2 9 9 35 23 58 23 36 28 40 43 28 15 -12 16
-11 4 4 -10 13 -11 22 -2 37 6 12 15 21 21 21 6 0 8 4 5 8 -3 5 4 23 15 41 29
48 17 49 -15 1 -15 -22 -31 -38 -35 -35 -5 3 -12 -2 -15 -11 -3 -8 -2 -12 4
-9 6 3 7 -1 4 -9 -3 -9 -10 -16 -14 -16 -10 0 -43 -51 -43 -67 0 -7 -3 -13 -7
-13 -4 0 -15 -18 -25 -39 -10 -22 -29 -50 -43 -63 l-25 -23 27 42 c14 24 26
49 26 56 0 7 6 19 12 25 7 7 31 47 54 90 23 42 46 77 52 77 6 0 14 4 19 9 4 5
3 6 -3 3 -7 -4 -14 0 -18 8 -3 8 -1 15 5 15 9 0 28 39 33 67 1 7 5 16 9 19 4
4 7 16 7 26 0 11 4 17 9 13 5 -3 13 0 17 6 5 8 3 9 -6 4 -9 -6 -12 -4 -8 6 16
43 15 58 -1 24 -11 -22 -20 -46 -20 -53 -1 -7 -5 -11 -10 -8 -5 3 -16 -11 -24
-32 -56 -137 -155 -309 -158 -272 -3 39 29 148 51 175 5 5 8 14 8 18 0 4 9 31
20 60 29 78 66 206 61 212 -3 2 -11 -18 -18 -45 -9 -34 -18 -50 -29 -51 -11 0
-12 -3 -5 -6 10 -3 10 -10 0 -31 -8 -15 -12 -35 -9 -46 2 -11 0 -16 -7 -12 -7
5 -11 -2 -11 -16 0 -12 -10 -49 -22 -81 -17 -44 -38 -73 -82 -114 -32 -30 -61
-52 -64 -48 -3 3 -17 -5 -31 -17 l-26 -23 24 27 c13 15 28 26 34 25 6 -1 11 3
12 8 0 6 15 29 34 50 18 22 28 29 21 16 -10 -19 -9 -22 2 -19 7 3 15 13 17 24
1 10 10 27 18 36 8 9 12 21 9 26 -5 9 91 299 117 351 7 15 26 74 42 131 24 83
31 99 37 79 l7 -24 -2 25 c-2 20 -8 26 -33 28 -23 2 -33 -2 -42 -20 l-12 -23
6 25 c4 17 3 22 -4 15 -6 -5 -24 -55 -41 -110 -22 -70 -29 -87 -26 -55 10 76
-12 24 -30 -75 -12 -61 -30 -114 -56 -165 -37 -69 -39 -72 -34 -35 15 92 106
331 123 321 5 -3 15 23 23 58 21 84 -1 86 -42 4 -16 -32 -25 -58 -20 -58 5 0
14 14 21 30 7 17 15 29 17 26 5 -4 -22 -56 -62 -121 -13 -22 -32 -56 -41 -75
-27 -53 -55 -91 -64 -85 -5 3 -18 -18 -29 -47 -18 -48 -19 -50 -16 -18 2 29
17 73 42 125 3 6 -5 -1 -16 -15 -11 -14 -21 -29 -21 -33 0 -13 -74 -117 -83
-117 -4 0 -1 13 8 30 8 16 14 33 14 37 -1 4 7 28 18 53 29 65 36 84 35 93 -1
4 2 7 8 7 5 0 10 9 10 21 0 11 5 29 11 40 6 11 9 24 7 29 -2 5 -27 -39 -57
-98 -30 -59 -64 -121 -77 -138 -13 -17 -28 -52 -35 -78 -17 -68 -29 -56 -14
14 7 33 11 60 9 60 -4 0 23 61 73 168 27 56 30 64 32 90 0 7 6 10 12 6 7 -4
10 -1 7 7 -3 8 6 35 19 62 l24 47 -30 -2 c-16 -1 -27 -6 -24 -11 5 -9 -68
-160 -74 -153 -2 2 10 34 27 71 17 38 29 73 27 79 -6 14 -41 -66 -74 -164 -33
-100 -33 -102 -40 -205 -4 -49 -8 -84 -10 -77 -3 6 -12 12 -21 12 -15 1 -15 2
-2 13 12 9 16 31 16 80 1 37 -1 65 -3 64 -2 -2 -8 -31 -13 -63 -7 -46 -8 -30
-4 75 5 127 6 136 39 202 38 75 42 87 22 70 -8 -6 -18 -7 -22 -3 -5 4 -5 2 -1
-5 8 -14 -70 -183 -84 -183 -6 0 -9 -3 -8 -7 1 -5 -3 -26 -10 -48 -19 -70 -24
-167 -12 -235 18 -101 20 -132 9 -149 -8 -12 -9 -11 -3 8 4 14 2 21 -3 18 -6
-4 -8 4 -5 18 2 15 0 25 -7 25 -7 0 -9 -5 -5 -12 9 -14 -8 -5 -54 29 -34 26
-35 35 -3 40 13 2 23 -6 30 -25 8 -21 9 -16 3 28 -14 122 -6 322 18 450 10 55
6 84 -5 34 -14 -61 -17 -70 -38 -121 -21 -50 -24 -53 -59 -53 -21 0 -38 -4
-38 -9 0 -5 9 -7 20 -4 13 3 20 0 20 -8 0 -11 2 -11 10 1 22 35 16 -1 -11 -64
-16 -37 -29 -74 -29 -82 0 -7 -9 -18 -19 -23 -18 -10 -19 -6 -15 95 2 75 10
131 28 194 30 104 30 100 12 100 -8 0 -16 -14 -19 -32 -10 -64 -29 -133 -39
-143 -7 -7 -8 1 -3 22 3 18 2 40 -4 50 -9 16 -10 15 -10 -7 0 -14 -4 -45 -10
-70 -10 -44 -15 -178 -7 -169 4 4 14 93 15 142 1 9 5 17 9 17 5 0 5 -28 1 -62
-5 -44 -4 -65 4 -70 7 -4 8 -8 3 -8 -5 0 -4 -6 2 -13 8 -9 7 -28 -3 -67 l-14
-55 3 48 c2 26 0 47 -4 47 -9 0 -20 -49 -21 -99 -1 -36 -2 -35 -10 9 -17 98
-11 174 36 435 14 78 -15 -21 -36 -120 -18 -89 -21 -130 -17 -232 4 -86 9
-127 18 -133 7 -4 10 -12 7 -17 -6 -9 7 -85 19 -117 6 -15 4 -18 -7 -12 -8 4
-6 1 3 -7 10 -8 15 -16 12 -19 -5 -5 16 -47 58 -116 26 -42 36 -34 14 13 -9
19 -16 41 -15 47 1 7 -3 26 -9 41 -14 34 -15 40 -3 32 5 -3 11 3 13 12 3 15 5
14 10 -5 3 -12 2 -20 -3 -16 -15 9 -10 -13 6 -26 13 -11 14 -10 9 5 -5 12 -4
16 4 11 7 -4 6 6 -3 28 -22 53 -18 61 15 32 17 -14 37 -23 45 -20 21 9 19 17
-2 10 -15 -5 -14 -3 2 9 22 18 34 3 16 -19 -9 -10 -8 -15 2 -19 9 -3 16 -29
21 -68 3 -34 8 -65 11 -67 2 -3 12 1 21 9 16 13 17 9 11 -61 -4 -41 -10 -97
-13 -125 -7 -55 -8 -75 -5 -149 2 -96 16 -33 23 112 7 139 15 251 19 262 1 3
0 13 -1 24 -1 16 3 14 27 -9 15 -14 37 -30 49 -35 17 -7 22 -21 29 -77 10 -95
7 -326 -6 -398 -6 -38 -7 -86 -1 -132 4 -40 5 -73 1 -73 -4 0 -28 26 -52 58
-25 32 -52 64 -61 71 -26 22 -71 93 -109 172 -70 147 -78 170 -68 183 7 9 7
17 -2 26 -10 12 -9 12 5 1 10 -7 15 -17 12 -22 -3 -5 1 -6 9 -3 8 3 20 -3 28
-13 13 -17 13 -17 -6 -3 -20 15 -20 14 -1 -8 17 -20 46 -30 46 -17 0 13 -44
64 -51 59 -4 -2 -11 1 -15 7 -4 8 -3 9 4 5 18 -11 15 -2 -19 56 l-31 53 31
-29 c17 -17 31 -26 31 -22 0 5 6 3 14 -4 12 -9 15 -8 13 9 0 11 -4 18 -7 16
-12 -8 -79 56 -111 105 -18 28 -33 50 -35 50 -4 0 9 -45 16 -55 3 -5 15 -32
25 -60 10 -27 23 -56 29 -64 8 -11 8 -13 -1 -8 -6 4 -13 3 -15 -3 -2 -6 -9 -1
-16 11 -8 12 -9 18 -3 14 16 -9 13 8 -5 31 -13 16 -15 16 -10 2 3 -10 3 -18 1
-18 -7 0 -76 122 -71 127 3 3 16 -18 30 -46 15 -28 29 -51 31 -51 8 0 -7 53
-22 76 -7 11 -11 23 -7 26 3 3 0 33 -6 67 -22 122 -18 558 6 633 5 16 -1 18
-41 18 l-46 0 3 -327z m1513 -437 c9 -44 14 -26 5 22 -6 33 -4 42 7 42 8 0 11
-4 8 -10 -3 -5 1 -10 10 -10 9 0 13 5 10 10 -4 6 7 10 24 10 37 0 40 -7 9 -20
-18 -7 -19 -9 -5 -9 9 -1 17 -7 17 -13 0 -9 3 -9 9 1 8 12 12 12 24 2 12 -9
17 -9 23 0 5 8 3 9 -6 4 -9 -5 -11 -4 -6 3 10 17 23 15 59 -10 62 -44 68 -50
56 -64 -8 -10 -16 -11 -29 -4 -10 6 -38 9 -62 8 -39 -1 -40 -2 -8 -5 19 -2 46
-6 59 -9 l25 -5 -30 -24 c-35 -29 -23 -33 14 -5 24 19 26 20 35 4 6 -10 12
-48 15 -85 2 -38 9 -66 13 -63 5 3 7 -1 4 -8 -7 -17 51 -87 82 -99 l23 -9 -27
-42 c-15 -24 -41 -60 -58 -80 -16 -21 -43 -54 -59 -73 -24 -30 -31 -34 -45
-23 -14 12 -14 11 -2 -4 13 -17 8 -23 -14 -18 -5 1 -7 -2 -2 -6 4 -4 -2 -17
-14 -30 -11 -12 -21 -28 -23 -35 -3 -22 -17 -40 -26 -34 -4 3 -13 -2 -20 -10
-15 -18 -34 -20 -24 -2 4 7 3 9 -2 4 -5 -5 -9 -13 -9 -19 0 -6 -9 -16 -20 -22
-11 -6 -23 -15 -26 -20 -4 -5 -12 -5 -19 -1 -8 5 -11 4 -6 -3 3 -6 -10 -23
-30 -39 -20 -15 -56 -45 -81 -66 -24 -20 -48 -35 -53 -32 -5 3 -18 -8 -30 -24
-14 -20 -26 -28 -37 -24 -10 4 -14 2 -10 -4 3 -5 -7 -23 -23 -38 -26 -25 -31
-26 -47 -14 -11 9 -14 10 -9 2 7 -12 -5 -18 -27 -14 -5 1 -6 -3 -2 -9 3 -6 12
-7 18 -3 7 4 6 -1 -2 -10 -8 -10 -16 -15 -19 -12 -3 3 -14 -3 -25 -12 -11 -10
-17 -12 -13 -6 4 7 9 22 11 32 3 15 -1 19 -16 16 -10 -2 -19 1 -19 7 0 6 -3 8
-6 5 -4 -4 -1 -13 6 -22 17 -21 -3 -19 -23 3 -9 10 -14 31 -12 50 2 31 2 32
-15 17 -10 -9 -17 -27 -15 -41 1 -15 -2 -23 -9 -21 -6 2 -10 11 -10 19 1 8 -4
15 -11 15 -7 0 -12 -7 -11 -16 1 -19 -32 -23 -53 -7 -11 8 -13 8 -8 -1 5 -8 0
-11 -13 -10 -21 1 -25 8 -13 21 4 3 8 14 9 22 1 9 0 13 -3 10 -7 -7 -33 13
-33 25 0 5 5 8 11 6 6 -1 13 6 14 16 2 9 -1 15 -6 11 -5 -3 -9 1 -10 8 0 10
-2 10 -6 0 -2 -6 -10 -9 -16 -5 -9 5 -9 3 0 -8 8 -9 9 -20 3 -29 -6 -8 -10
-12 -10 -7 0 18 -2 23 -17 39 -11 12 -20 15 -27 9 -9 -8 -51 -8 -51 -1 0 1
-10 3 -23 4 l-22 3 22 -24 c12 -13 24 -20 27 -16 8 11 62 12 55 1 -3 -4 -10
-5 -16 -2 -6 4 -9 1 -6 -7 3 -8 11 -14 19 -14 8 -1 13 -6 12 -11 -1 -6 3 -11
10 -12 37 -3 52 -11 49 -25 -3 -19 34 -42 43 -27 4 6 12 7 18 3 7 -4 30 -8 52
-8 33 0 40 -4 40 -19 0 -10 8 -20 18 -22 9 -1 15 2 11 7 -3 5 -10 7 -15 4 -14
-9 -11 11 4 24 16 13 28 5 20 -15 -3 -8 0 -14 7 -14 6 0 9 4 6 9 -3 5 1 12 9
15 13 4 14 2 5 -14 -6 -11 -15 -21 -20 -21 -14 -2 -23 -5 -40 -13 -9 -3 -27
-4 -40 -2 -14 2 -27 5 -29 5 -3 1 0 6 7 13 15 15 16 31 0 22 -6 -4 -8 -3 -4 4
4 7 -5 9 -26 7 -45 -5 -45 -4 -30 -14 11 -7 11 -9 -1 -14 -11 -4 -15 0 -12 14
4 22 -5 25 -24 7 -7 -7 -12 -8 -11 -3 2 6 1 15 0 20 -1 6 -3 16 -4 24 0 8 -7
16 -15 19 -9 3 -11 0 -6 -9 5 -8 -1 -5 -13 5 -31 27 -27 8 6 -28 15 -17 -11 5
-58 50 -47 44 -113 107 -147 139 -35 32 -60 63 -56 69 3 6 3 8 -2 4 -4 -4 -14
-3 -22 3 -16 14 -19 164 -3 154 6 -4 7 -12 3 -18 -4 -7 0 -7 10 1 9 8 26 11
39 7 52 -14 78 -28 78 -41 0 -7 14 -22 30 -34 17 -12 27 -26 24 -32 -4 -7 -2
-8 4 -4 11 7 45 -8 71 -32 9 -9 16 -10 20 -3 4 6 12 7 21 1 13 -8 12 -11 -5
-24 -15 -11 -24 -12 -35 -3 -8 6 -12 7 -8 3 4 -5 2 -16 -4 -25 -7 -9 -8 -13
-4 -9 5 4 16 2 24 -5 10 -7 13 -8 9 -1 -8 15 18 38 33 29 6 -3 8 -9 6 -13 -2
-4 33 -8 77 -9 45 -1 102 -5 127 -8 60 -8 32 11 -30 20 -70 10 -66 20 8 22 73
2 127 17 117 33 -8 14 46 33 109 39 4 1 6 7 3 15 -8 20 4 28 20 14 11 -9 13
-8 11 2 -2 8 14 18 42 26 25 7 53 18 62 23 11 7 18 7 20 0 2 -6 11 -7 20 -4
14 6 14 9 1 36 -8 16 -18 29 -23 29 -14 0 -76 -29 -62 -30 18 0 15 -17 -5 -25
-10 -3 -65 -15 -123 -26 -120 -22 -279 -26 -354 -8 -98 23 -191 51 -233 71
-23 11 -47 17 -52 13 -7 -3 -8 0 -5 9 9 22 -12 20 -36 -4 -20 -20 -20 -20 -21
3 -1 19 -5 75 -11 152 -1 11 1 98 6 193 5 122 4 172 -4 172 -7 0 -8 6 0 19 5
11 10 29 10 40 0 14 6 21 20 21 23 0 26 -19 7 -39 -10 -11 -9 -12 3 -6 10 6 8
1 -4 -13 -19 -22 -19 -22 2 -22 17 0 21 -7 24 -37 3 -41 33 -56 33 -17 0 12
14 33 31 48 36 29 74 35 74 10 0 -14 2 -14 15 0 8 8 15 19 15 25 0 6 5 11 10
11 16 0 -6 -36 -32 -54 -12 -9 -19 -16 -15 -16 11 0 -28 -73 -60 -111 l-28
-33 35 20 c19 10 56 33 81 51 l47 32 -9 -32 c-5 -18 -9 -50 -9 -72 l1 -40 26
50 c22 43 27 47 34 30 4 -11 8 -30 8 -42 1 -32 19 -29 19 3 0 18 18 44 65 90
36 35 67 64 70 64 2 0 7 -19 11 -42 4 -23 15 -65 24 -92 l17 -51 6 40 c3 22 7
31 8 20 2 -16 5 -14 16 12 29 64 26 105 -5 68 -7 -8 -17 -15 -22 -15 -6 0 3
12 19 28 47 43 64 56 62 46 -4 -21 2 -44 11 -44 5 0 16 16 24 35 8 19 22 35
30 35 9 0 25 9 36 20 14 14 26 18 35 13 21 -12 96 -3 88 10 -3 6 -1 7 6 3 6
-4 9 -11 6 -16 -3 -5 0 -12 5 -15 7 -4 8 -19 5 -36 -4 -16 -3 -34 2 -41 5 -8
10 9 13 45 5 56 6 58 25 43 15 -12 17 -18 7 -24 -10 -7 -8 -13 8 -27 18 -16
20 -30 19 -138 0 -72 4 -124 10 -130 11 -11 14 38 15 186 0 26 1 47 2 47 2 0
19 -9 38 -21 26 -15 40 -34 55 -72 43 -115 126 -264 165 -296 9 -7 13 -17 10
-22 -3 -5 2 -6 11 -3 14 6 14 9 -2 27 -10 11 -12 17 -5 13 7 -4 12 -2 12 4 0
16 -61 92 -68 86 -8 -8 -78 133 -85 172 -6 31 -6 32 16 21 12 -7 37 -23 55
-37 17 -13 32 -20 32 -15 0 9 -86 78 -98 78 -19 1 -62 40 -62 57 0 15 -3 17
-20 8 -15 -8 -21 -6 -30 10 -6 11 -16 19 -22 17 -7 -1 -13 14 -14 38 l-3 40
16 -32 c9 -18 20 -33 25 -33 5 0 3 10 -4 23 -7 12 -13 25 -14 30 -1 4 -2 8 -4
10 -6 7 -8 42 -3 51 7 11 18 -12 28 -58z"/>
</g>
</svg>
